<?xml version="1.0" encoding="utf-8"?>
<svg xmlns="http://www.w3.org/2000/svg" viewBox="0 0 296 108" xmlns:bx="https://boxy-svg.com">
  <defs>
    <bx:guide x="313.06" y="114.682" angle="90"/>
    <bx:guide x="313.06" y="18.331" angle="0"/>
  </defs>
  <g transform="matrix(0.367481, 0, 0, 0.367481, 20.281174, -16.700135)" style="">
    <rect x="167.113" y="76.285" width="164" height="242" style="stroke: rgb(216, 216, 216); stroke-width: 7.98288px;"/>
    <path d="M 352.44 313.135 Q 352.44 312.096 353.386 311.497 Q 354.396 310.857 355.717 311.243 Q 357.184 311.673 358.115 313.135 Q 359.161 314.777 358.993 316.918 Q 358.806 319.312 357.169 321.326 Q 355.357 323.557 352.44 324.485 Q 349.242 325.503 345.819 324.603 Q 342.1 323.625 339.334 320.702 Q 336.352 317.551 335.415 313.135 Q 334.411 308.407 336.057 303.676 Q 337.81 298.641 342.036 295.114 Q 346.512 291.378 352.44 290.435 Q 358.692 289.44 364.736 291.838 Q 371.087 294.357 375.376 299.893 Q 379.868 305.691 380.816 313.135 Q 381.805 320.909 378.652 328.269 Q 375.368 335.935 368.519 340.985 Q 361.402 346.235 352.44 347.186 Q 343.145 348.172 334.469 344.262 Q 325.487 340.214 319.675 332.052 Q 313.667 323.616 312.714 313.135 Q 311.731 302.319 316.398 292.326 Q 321.209 282.029 330.685 275.455 Q 340.44 268.689 352.44 267.734 Q 364.777 266.752 376.086 272.178 Q 387.7 277.751 395.035 288.543 Q 402.56 299.615 403.516 313.135 Q 404.496 326.993 398.311 339.619 Q 391.978 352.549 379.87 360.645 Q 367.48 368.929 352.44 369.886 Q 337.062 370.865 323.119 363.921 Q 308.872 356.826 300.016 343.402 Q 290.972 329.695 290.014 313.135 Q 289.036 296.236 296.739 280.976 Q 304.595 265.413 319.335 255.796 Q 334.359 245.993 352.44 245.034 Q 370.86 244.057 387.436 252.519 Q 404.316 261.137 414.694 277.193 Q 425.257 293.534 426.216 313.135 Q 427.193 333.075 417.97 350.969 Q 408.592 369.165 391.22 380.304 Q 380.243 387.342 367.508 390.436" bx:shape="spiral 352.44 313.135 0 78.756 0 1248.97 1@31cc7513" style="stroke-width: 10.3025px; fill: rgba(216, 216, 216, 0); stroke: rgb(255, 255, 255); transform-box: fill-box; transform-origin: 50% 50%;" transform="matrix(0.504384, 0.001674, -0.022999, 1.04857, -111.403314, -125.298719)"/>
  </g>
  <g transform="matrix(0.370292, 0, 0, 0.370292, -48.930383, -19.450089)" style="">
    <rect x="165.706" y="82.015" width="164" height="242" style="stroke: rgb(116, 103, 103); stroke-width: 8.00534px;"/>
    <g transform="matrix(1, 0, 0, 1, 0, -18.403378)">
      <rect x="211.505" y="194.66" width="69.44" height="69.44" style="stroke: rgb(116, 103, 103); fill: rgb(116, 103, 103); stroke-width: 8.00534px;"/>
      <ellipse style="fill: rgb(116, 103, 103); stroke: rgb(116, 103, 103); stroke-width: 8.00534px;" cx="246.309" cy="196.139" rx="34.805" ry="36.855"/>
      <rect x="205.059" y="251.88" width="83.114" height="23.687" style="fill: rgb(116, 103, 103); stroke: rgb(116, 103, 103); stroke-width: 8.00534px;"/>
      <path d="M 241.535 174.655 H 251.699 V 196.155 H 274.85 V 212.981 H 251.699 V 268.132 H 241.535 V 212.981 H 218.383 V 196.155 H 241.535 Z" bx:shape="cross 218.383 174.655 56.467 93.477 16.826 10.164 0.32 1@ec153332" style="stroke: rgb(255, 215, 0); fill: rgb(255, 215, 0); stroke-width: 8.00534px;"/>
    </g>
  </g>
  <g transform="matrix(0.363934, 0, 0, 0.363934, 93.571832, -15.719506)" style="">
    <rect x="164" y="71.096" width="164" height="242" style="fill: rgb(86, 49, 33); stroke: rgb(183, 136, 90); stroke-width: 8.24325px;"/>
    <ellipse style="stroke: rgb(0, 0, 0);" cx="245.575" cy="195.378" rx="33.219" ry="65.293"/>
  </g>
  <g transform="matrix(0.363934, 0, 0, 0.363934, 164.835574, -16.243525)" style="">
    <rect x="164" y="71.096" width="164" height="242" style="fill: rgb(38, 147, 141); stroke: rgb(85, 81, 79); stroke-width: 8.24325px;"/>
    <ellipse style="stroke: rgb(0, 0, 0);" cx="245.575" cy="195.378" rx="33.219" ry="65.293"/>
  </g>
</svg>